<svg version="1.2" xmlns="http://www.w3.org/2000/svg" viewBox="0 0 64 64" width="64" height="64"><style>.a{fill:#072024}.b{fill:#45cde4}</style><path fill-rule="evenodd" class="a" d="m64 0v64h-64v-64z"/><path fill-rule="evenodd" class="b" d="m63 1.1v61.8h-62v-61.8z"/><path fill-rule="evenodd" d="m10 10.1q-0.3-0.1-0.8-0.1-1.2 0-1.6 0.4-0.4 0.3-0.7 0.6-0.4 0.3-0.5 1.5l-0.6 26.5q-0.1 1.2 0.6 2 0.7 0.8 2 0.8h0.3q0.3 0 0.5 0h15.5q1.7-0.1 2.7-0.7 1-0.7 1-2 0-1.4-1.1-2.2-1-0.8-2.7-0.8l-12.9 0.1 0.3-9.7h11.6q1.7 0 2.8-0.7 1-0.6 1-1.9 0-1.5-0.6-1.9-0.5-0.4-1-0.7-0.5-0.4-2.4-0.4h-11.2l0.1-5.2q6-0.1 13.7-0.1 1.6 0 2.1-0.3 0.6-0.4 1.1-0.7 0.5-0.3 0.5-1.6-0.1-1.5-0.6-1.9-0.5-0.4-1-0.8-0.6-0.3-2.3-0.3h-15.3q-0.2 0.1-0.5 0.1zm49 3.4q0-1.5-1-2.4-0.9-0.8-2.4-0.8l-21.7-0.1q-1.5 0-2.4 0.8-0.9 0.9-0.9 2.4 0 1.4 0.9 2.2 1 0.8 2.5 0.8l15.2 0.1-17.9 19.7q-1 1.1-1 2.7 0 1.4 0.9 2.2 0.9 0.8 2.5 0.8l21.8 0.2q1.6 0 2.5-0.8 1-0.8 1-2.3 0-1.5-1-2.3-0.9-0.9-2.4-0.9h-15.8l17.4-18.7q1.8-1.9 1.8-3.6z"/></svg>